PathFileType	4	(X/Y/Z)	C:\Users\Basilio\Documents\Thesis Gigler\squatting_fais\c3dfiles\077\SJ_pre3\markers_experimental.trc
DataRate	CameraRate	NumFrames	NumMarkers	Units	OrigDataRate	OrigDataStartFrame	OrigNumFrames
200.000000	200.000000	4	60	mm	200.000000	1244	1422
Frame#	Time	FHD			LBHD			RBHD			C7			T10			CLAV			LSHO			LUUPA			LMUPA			LDUPA			LLEP			LMEP			LRAD			LUL			LRFIN			RSHO			RUPA1			RMUPA			RDUPA			RLEP			RMEP			RRAD			RUL			RUFIN			LASI			RASI			USACR			LSACR			RSACR			LTHI1			LTHI2			LTHI3			LTHI4			LLFC			LMFC			LTIB1			LTIB2			LTIB3			LTIB4			LLMAL			LHEE			LMT1			LMT2			LMT5			RTHI			RTHI2			RTHI3			RTHI4			RLFC			RMFC			RTIB1			RTIB2			RTIB3			RTIB4			RLMAL			RMMAL			RHEE			RMT1			RMT2			RMT5			
		X1	Y1	Z1	X2	Y2	Z2	X3	Y3	Z3	X4	Y4	Z4	X5	Y5	Z5	X6	Y6	Z6	X7	Y7	Z7	X8	Y8	Z8	X9	Y9	Z9	X10	Y10	Z10	X11	Y11	Z11	X12	Y12	Z12	X13	Y13	Z13	X14	Y14	Z14	X15	Y15	Z15	X16	Y16	Z16	X17	Y17	Z17	X18	Y18	Z18	X19	Y19	Z19	X20	Y20	Z20	X21	Y21	Z21	X22	Y22	Z22	X23	Y23	Z23	X24	Y24	Z24	X25	Y25	Z25	X26	Y26	Z26	X27	Y27	Z27	X28	Y28	Z28	X29	Y29	Z29	X30	Y30	Z30	X31	Y31	Z31	X32	Y32	Z32	X33	Y33	Z33	X34	Y34	Z34	X35	Y35	Z35	X36	Y36	Z36	X37	Y37	Z37	X38	Y38	Z38	X39	Y39	Z39	X40	Y40	Z40	X41	Y41	Z41	X42	Y42	Z42	X43	Y43	Z43	X44	Y44	Z44	X45	Y45	Z45	X46	Y46	Z46	X47	Y47	Z47	X48	Y48	Z48	X49	Y49	Z49	X50	Y50	Z50	X51	Y51	Z51	X52	Y52	Z52	X53	Y53	Z53	X54	Y54	Z54	X55	Y55	Z55	X56	Y56	Z56	X57	Y57	Z57	X58	Y58	Z58	X59	Y59	Z59	X60	Y60	Z60	

1245	6.22	-200.3333435058594	1818.117553710938	-916.552673339844	-345.5042419433594	1719.754760742188	-992.140808105469	-355.3414306640626	1711.71142578125	-846.8145141601565	-416.4771728515626	1580.261108398438	-927.6055297851565	-443.4696350097657	1245.282958984375	-924.1404418945315	-253.3207550048829	1518.36181640625	-923.1243286132815	-308.9190673828126	1546.681274414063	-1116.989135742188	-354.9210510253907	1406.21240234375	-1279.754638671875	-319.8092346191407	1369.037353515625	-1283.063354492188	-364.7942504882813	1354.845458984375	-1323.423583984375	-359.6622619628907	1293.252563476563	-1356.566528320313	-436.0953979492189	1270.192626953125	-1321.285278320313	-327.9435424804688	1069.271362304688	-1150.104858398438	-283.3204650878907	1027.434936523438	-1202.596069335938	-281.1252136230469	1050.717651367188	-1091.384765625	-288.2877197265626	1550.843383789063	-731.3643188476564	-356.4471435546876	1418.867553710938	-556.5249023437501	-329.7939453125001	1376.721923828125	-555.7709350585939	-371.5402526855469	1364.354125976563	-513.7165527343751	-375.1016235351563	1299.20556640625	-484.9797973632814	-456.9451293945314	1285.321044921875	-517.4842529296876	-367.6382751464844	1071.772338867188	-673.5466918945314	-308.6777648925782	1040.745361328125	-629.5440673828126	-312.5857849121094	1071.450073242188	-725.9275512695314	-252.1772460937501	1036.907958984375	-1051.828491210938	-269.3790893554688	1048.989501953125	-775.373229980469	-460.4707641601564	1140.01806640625	-920.1277465820315	-466.8549194335939	1109.729370117188	-948.6187133789065	-472.7915344238282	1109.531005859375	-893.3308715820315	-365.0531616210938	837.5728149414065	-1133.9697265625	-349.3771362304688	756.3597412109376	-1144.485717773438	-302.2689208984376	749.9123535156251	-1137.917724609375	-386.8765563964845	707.8377685546876	-1136.777465820313	-380.7374877929688	559.0408935546876	-1133.401611328125	-363.5646667480469	512.7148437500001	-1009.638427734375	-341.2209777832032	337.1128540039063	-1124.570190429688	-382.4001464843751	306.2816772460938	-1198.028198242188	-346.3531188964844	299.4452514648438	-1170.844848632813	-343.2239379882813	213.956283569336	-1159.026611328125	-406.2718811035157	102.2014465332032	-1214.61669921875	-444.5496826171876	45.92549133300782	-1163.289794921875	-228.0878601074219	59.44577789306642	-1192.748413085938	-236.3729858398438	60.07239532470705	-1234.341064453125	-358.5241394042969	101.1775588989258	-1137.846435546875	-418.0932617187501	735.2718505859376	-698.2847290039064	-389.1622619628907	676.0720825195314	-682.7513427734376	-355.4958190917969	672.5878295898439	-680.2107543945314	-422.885467529297	603.2697753906251	-697.7073974609376	-424.1709289550782	534.4472045898439	-690.0529785156251	-365.6191711425782	499.0164794921876	-802.9885864257815	-364.2373962402344	407.4349670410157	-667.9539184570314	-426.7609252929689	327.5371093750001	-636.1872558593751	-379.7886657714844	325.0656127929688	-643.4489135742189	-359.9556274414063	275.7846069335938	-669.9387817382814	-417.5511169433595	97.83103179931643	-613.2755737304689	-365.6337585449219	95.78663635253908	-691.0174560546876	-456.3888244628907	44.31194305419923	-675.5312500000001	-242.5553131103516	60.10921096801759	-600.1000976562501	-256.5680541992188	61.48993301391603	-564.9138793945314	-284.1315917968751	42.01799392700196	-521.6191406250001	
1246	6.225000000000001	-200.4411010742188	1817.901977539063	-916.4185180664065	-345.6681213378907	1719.503784179688	-992.1246337890627	-355.5869750976563	1711.709350585938	-846.8164672851565	-416.6448974609376	1580.1865234375	-927.6289062500002	-443.5728759765626	1245.256225585938	-924.1336669921877	-253.467514038086	1518.3779296875	-923.1271972656252	-309.0187377929688	1546.663208007813	-1116.949951171875	-354.9595031738282	1406.241088867188	-1279.7490234375	-319.7845458984376	1369.006103515625	-1283.059326171875	-364.8557434082032	1354.821899414063	-1323.4599609375	-359.6259460449219	1293.251586914063	-1356.546630859375	-436.0462036132814	1270.201171875	-1321.346069335938	-328.0029907226563	1069.246948242188	-1150.084350585938	-283.3370971679688	1027.44189453125	-1202.562377929688	-281.2649230957032	1050.724487304688	-1091.384521484375	-288.5583496093751	1550.814697265625	-731.3092651367189	-356.6950683593751	1418.89453125	-556.5100097656251	-330.0640869140626	1376.69580078125	-555.7109985351564	-371.8168945312501	1364.381225585938	-513.6809692382814	-375.3621520996094	1299.268310546875	-485.0544433593751	-457.1870117187501	1285.284790039063	-517.5658569335939	-367.7928466796876	1071.75	-673.5602416992189	-308.9564819335938	1040.897216796875	-629.5438842773439	-312.7091369628907	1071.49609375	-725.9119873046876	-252.2558135986329	1036.940673828125	-1051.771362304688	-270.6437988281251	1049.206298828125	-776.2615356445315	-460.5738220214845	1140.047485351563	-920.1354980468752	-466.9574584960939	1109.703979492188	-948.645446777344	-472.8181152343751	1109.531005859375	-893.3005981445315	-365.0951843261719	837.682067871094	-1134.026245117188	-349.4234924316407	756.3747558593751	-1144.474487304688	-302.3178100585938	749.9167480468751	-1137.9375	-386.9772949218751	707.8723754882814	-1136.781372070313	-380.7384643554688	558.9957885742189	-1133.408569335938	-363.5314025878907	512.7446899414064	-1009.62060546875	-341.2106323242188	337.1007690429688	-1124.572509765625	-383.1296997070313	306.4279479980469	-1198.27294921875	-346.3481750488282	299.4439392089844	-1170.797241210938	-343.2575073242188	213.9981384277344	-1158.9873046875	-406.2991638183595	102.127182006836	-1214.63818359375	-444.5685119628907	45.99467849731446	-1163.303833007813	-228.0593719482422	59.39937210083009	-1192.749633789063	-236.340316772461	60.03240966796876	-1234.348754882813	-358.5311584472657	101.2048797607422	-1137.881469726563	-418.1939697265626	735.2648925781251	-698.2930908203126	-389.2436523437501	676.1055908203126	-682.7541503906251	-355.5887451171876	672.6174316406251	-680.1392822265626	-422.9952087402345	603.2791748046876	-697.7097167968751	-424.2333984375001	534.4484252929689	-690.0501708984376	-365.6273498535157	499.0387573242189	-802.951599121094	-364.3244628906251	407.370819091797	-668.0462036132814	-426.7980346679689	327.5440063476563	-636.1325073242189	-379.8749694824219	325.1070251464844	-643.4331665039064	-359.9929809570313	275.7969360351563	-669.8601074218751	-417.5447387695314	97.82318878173831	-613.2807006835939	-365.7558288574219	95.79272460937501	-691.0609130859376	-456.3563842773439	44.24078750610352	-675.5562744140626	-242.5320587158204	60.15859985351564	-600.0833129882814	-256.5701293945313	61.4479103088379	-564.9195556640626	-284.1279296875001	42.00990676879884	-521.6217041015626	
1247	6.23	-200.8718261718751	1818.106201171875	-916.4748535156252	-345.8525695800782	1719.408447265625	-992.1103515625002	-355.8213195800782	1711.72509765625	-846.759216308594	-416.8640747070314	1580.149047851563	-927.6552734375002	-443.7227478027345	1245.244140625	-924.1291503906252	-253.6133880615235	1518.317260742188	-923.084411621094	-309.1413574218751	1546.692016601563	-1116.944946289063	-354.9446411132813	1406.294555664063	-1279.758056640625	-319.8438415527344	1369.079467773438	-1283.049560546875	-364.5981445312501	1354.774047851563	-1323.396728515625	-359.5267944335938	1293.215209960938	-1356.569091796875	-436.018524169922	1270.162475585938	-1321.357543945313	-328.1027221679688	1069.260864257813	-1150.043334960938	-283.3588867187501	1027.384521484375	-1202.492431640625	-281.8760681152344	1050.8427734375	-1091.609741210938	-288.7937927246094	1550.80126953125	-731.3150634765626	-356.9560241699219	1418.925903320313	-556.4906616210939	-330.3506164550782	1376.647094726563	-555.6802978515626	-372.0624694824219	1364.39404296875	-513.7044677734376	-375.6207580566407	1299.270385742188	-484.9731445312501	-457.4301147460939	1285.293579101563	-517.5853271484376	-367.9647827148438	1071.776123046875	-673.5554199218751	-309.1207275390626	1040.880249023438	-629.5252685546876	-312.8557434082032	1071.47119140625	-725.8779907226564	-252.187728881836	1036.950805664063	-1051.705810546875	-270.6414489746094	1049.214233398438	-776.0776977539065	-460.6466674804689	1140.03369140625	-920.1467895507815	-468.008270263672	1109.58935546875	-948.2395629882815	-473.7740478515626	1109.210571289063	-893.0996704101565	-365.0770874023438	837.6756591796877	-1134.006103515625	-349.4557495117188	756.4096679687501	-1144.473999023438	-302.3264465332032	749.9642333984376	-1137.957641601563	-386.8496093750001	707.8444213867189	-1136.79443359375	-380.8616638183594	559.0376586914064	-1133.448364257813	-363.6694641113282	512.6385498046876	-1009.690490722656	-341.2575073242188	337.1041259765626	-1124.6123046875	-383.0995178222657	306.4067993164063	-1198.284790039063	-346.3582153320313	299.4611206054688	-1170.880737304688	-343.2454223632813	213.8824310302735	-1159.047241210938	-406.204559326172	102.133544921875	-1214.647827148438	-444.5683593750001	45.93908309936524	-1163.296142578125	-228.1354675292969	59.46712112426759	-1192.751098632813	-236.3730468750001	60.01841354370119	-1234.344482421875	-358.5438842773438	101.142692565918	-1137.89013671875	-418.2911987304689	735.2614746093751	-698.2816772460939	-389.3322143554689	676.1079101562501	-682.6988525390626	-355.6559753417969	672.6947631835939	-680.0807495117189	-423.069793701172	603.2308959960939	-697.7049560546876	-424.3137512207032	534.4317016601564	-690.0538940429689	-365.7036132812501	499.0185546875001	-802.997497558594	-364.4007568359376	407.3497314453126	-668.0133056640626	-426.8222656250001	327.5376892089844	-636.1182250976564	-379.8810424804688	325.1421813964844	-643.4432373046876	-360.0637817382813	275.7973327636719	-669.9043579101564	-417.5327453613282	97.77954101562503	-613.2921142578126	-365.5531005859376	95.71146392822267	-690.9788208007814	-456.3905029296876	44.33922958374024	-675.5259399414064	-242.5910034179688	60.11200332641603	-600.1146240234376	-256.5370483398438	61.48047256469728	-564.9061889648439	-284.1516723632813	41.9975929260254	-521.6470336914064	
1248	6.235	-200.909164428711	1817.838134765625	-916.367858886719	-345.9613952636719	1719.419799804688	-992.089538574219	-355.9716186523438	1712.303100585938	-846.8628540039065	-416.9973449707032	1580.21435546875	-927.720886230469	-443.8197631835939	1245.2197265625	-924.1966552734377	-253.8018035888672	1518.336547851563	-923.0462036132815	-309.3267211914063	1546.692260742188	-1116.94384765625	-354.9982299804688	1406.30712890625	-1279.720825195313	-319.7662963867188	1369.052856445313	-1282.952270507813	-364.7183837890626	1354.776611328125	-1323.414916992188	-359.5151062011719	1293.248779296875	-1356.554565429688	-435.9692993164064	1270.160888671875	-1321.396728515625	-328.1084899902344	1069.228515625	-1150.04541015625	-283.3552551269532	1027.3388671875	-1202.447875976563	-281.6781311035157	1050.795654296875	-1091.4091796875	-289.0195922851563	1550.862060546875	-731.3065185546876	-357.1922607421876	1418.859985351563	-556.5140380859376	-330.5837707519532	1376.674194335938	-555.6319580078126	-372.2882995605469	1364.421508789063	-513.8220825195314	-375.8797607421876	1299.268310546875	-484.9729919433595	-457.6866760253907	1285.303466796875	-517.5942382812501	-368.2147827148438	1071.782470703125	-673.5231933593751	-309.3046264648438	1040.898193359375	-629.5481567382814	-313.0120544433594	1071.477416992188	-725.8569946289064	-252.3294219970704	1036.927612304688	-1051.663696289063	-270.7976074218751	1049.166259765625	-776.0538330078127	-460.7250976562501	1140.031127929688	-920.1665039062502	-468.2332763671876	1109.576538085938	-948.2229614257815	-473.8359375000001	1109.249145507813	-893.144714355469	-365.1132202148438	837.8355102539065	-1134.0888671875	-349.5388488769532	756.4957885742189	-1144.197875976563	-301.9740905761719	750.3678588867189	-1138.137451171875	-386.9610290527345	707.8854980468751	-1136.810668945313	-381.0015869140626	559.1197509765626	-1133.456420898438	-363.6236267089844	512.7074584960939	-1009.640747070313	-341.2511291503907	337.0964050292969	-1124.59326171875	-383.1604309082032	306.4376220703126	-1198.293701171875	-346.3880004882813	299.4161682128907	-1170.838623046875	-343.2801513671876	213.9930572509766	-1159.044921875	-406.3375854492189	102.1777801513672	-1214.610107421875	-444.5523071289064	45.95726776123048	-1163.294189453125	-228.0851440429688	59.486141204834	-1192.789916992188	-236.3899841308594	59.99449157714845	-1234.343383789063	-358.5657348632813	101.1539688110352	-1137.92041015625	-418.3833618164064	735.2479248046876	-698.2745361328126	-389.3986816406251	676.1392822265626	-682.7141113281251	-355.8198852539063	672.6387939453126	-680.0852050781251	-423.1390380859376	603.2328491210939	-697.6717529296876	-424.3632812500001	534.4557495117189	-690.0130615234376	-365.7892150878907	498.9872436523439	-802.9879150390627	-364.4003601074219	407.3701171875001	-668.0228271484376	-426.8562011718751	327.5322875976563	-636.1177368164064	-379.9275512695313	325.1179809570313	-643.4213867187501	-360.0141906738282	275.7732849121094	-669.9002685546876	-417.586639404297	97.78210449218753	-613.2851562500001	-365.6701354980469	95.77275848388673	-691.0281372070314	-456.3833618164064	44.19075775146485	-675.4846801757814	-242.5416717529297	60.12413406372072	-600.1189575195314	-256.5579223632813	61.46651458740236	-564.9448242187501	-284.1365966796876	42.00720596313477	-521.6333007812501	
